<?xml version="1.0" encoding="UTF-8" standalone="no"?>
<svg
   xmlns:dc="http://purl.org/dc/elements/1.1/"
   xmlns:cc="http://creativecommons.org/ns#"
   xmlns:rdf="http://www.w3.org/1999/02/22-rdf-syntax-ns#"
   xmlns:svg="http://www.w3.org/2000/svg"
   xmlns="http://www.w3.org/2000/svg"
   viewBox="0 0 44.791145 44.699417"
   height="44.699417"
   width="44.791145"
   id="svg3680"
   version="1.1">
  <metadata
     id="metadata3686">
    <rdf:RDF>
      <cc:Work
         rdf:about="">
        <dc:format>image/svg+xml</dc:format>
        <dc:type
           rdf:resource="http://purl.org/dc/dcmitype/StillImage" />
        <dc:title></dc:title>
      </cc:Work>
    </rdf:RDF>
  </metadata>
  <defs
     id="defs3684" />
  <path
     id="path3692"
     d="M 14.795353,43.481814 C 9.5228598,41.810639 2.4561286,34.227061 0.86040259,28.527688 -3.8655054,11.6484 11.6484,-3.8655058 28.527688,0.86040271 31.793285,1.7747133 34.711749,3.6227748 37.819663,6.744367 c 9.294068,9.334974 9.295417,21.786612 0.0034,31.078663 -6.481959,6.481925 -14.339113,8.41273 -23.02771,5.658784 z M 29.577472,41.242305 C 46.613402,34.12599 47.046463,11.476828 30.295353,3.6970187 24.518332,1.0139654 18.988666,1.2912674 12.69389,4.579698 3.3109706,9.4813932 -0.67645339,20.878604 3.6970186,30.295353 8.5064566,40.650804 19.679655,45.376859 29.577472,41.242305 Z M 16.795353,21.795353 v -8 h 5.166667 c 5.567591,0 6.081798,1.124282 0.635612,1.389728 -2.802511,0.136593 -3.350166,0.573303 -3.618701,2.885612 -0.292196,2.516045 -0.04336,2.72466 3.25,2.72466 1.961532,0 3.566422,0.45 3.566422,1 0,0.55 -1.575,1 -3.5,1 -3.333333,0 -3.5,0.166667 -3.5,3.5 0,1.925 -0.45,3.5 -1,3.5 -0.583333,0 -1,-3.333333 -1,-8 z"
     style="fill:#f7ba64" />
</svg>
